<mxfile host="app.diagrams.net" agent="Mozilla/5.0 (Windows NT 10.0; Win64; x64) AppleWebKit/537.36 (KHTML, like Gecko) Chrome/139.0.0.0 Safari/537.36 Edg/139.0.0.0" version="28.1.1">
  <diagram name="Page-1" id="2YBvvXClWsGukQMizWep">
    <mxGraphModel dx="872" dy="495" grid="1" gridSize="10" guides="1" tooltips="1" connect="1" arrows="1" fold="1" page="1" pageScale="1" pageWidth="850" pageHeight="1100" math="0" shadow="0">
      <root>
        <mxCell id="0" />
        <mxCell id="1" parent="0" />
        <mxCell id="5b2YeRVBqgFCgWzAAC8m-1" value="" style="shape=umlLifeline;perimeter=lifelinePerimeter;whiteSpace=wrap;html=1;container=1;dropTarget=0;collapsible=0;recursiveResize=0;outlineConnect=0;portConstraint=eastwest;newEdgeStyle={&quot;curved&quot;:0,&quot;rounded&quot;:0};participant=umlActor;" vertex="1" parent="1">
          <mxGeometry x="170" y="80" width="20" height="300" as="geometry" />
        </mxCell>
        <mxCell id="5b2YeRVBqgFCgWzAAC8m-2" value=":System" style="shape=umlLifeline;perimeter=lifelinePerimeter;whiteSpace=wrap;html=1;container=1;dropTarget=0;collapsible=0;recursiveResize=0;outlineConnect=0;portConstraint=eastwest;newEdgeStyle={&quot;curved&quot;:0,&quot;rounded&quot;:0};" vertex="1" parent="1">
          <mxGeometry x="400" y="80" width="100" height="300" as="geometry" />
        </mxCell>
        <mxCell id="5b2YeRVBqgFCgWzAAC8m-5" value="" style="html=1;points=[[0,0,0,0,5],[0,1,0,0,-5],[1,0,0,0,5],[1,1,0,0,-5]];perimeter=orthogonalPerimeter;outlineConnect=0;targetShapes=umlLifeline;portConstraint=eastwest;newEdgeStyle={&quot;curved&quot;:0,&quot;rounded&quot;:0};" vertex="1" parent="5b2YeRVBqgFCgWzAAC8m-2">
          <mxGeometry x="45" y="149" width="10" height="31" as="geometry" />
        </mxCell>
        <mxCell id="5b2YeRVBqgFCgWzAAC8m-3" value="Teacher, Manager, Program Manager" style="text;html=1;align=center;verticalAlign=middle;resizable=0;points=[];autosize=1;strokeColor=none;fillColor=none;" vertex="1" parent="1">
          <mxGeometry x="72" y="113" width="220" height="30" as="geometry" />
        </mxCell>
        <mxCell id="5b2YeRVBqgFCgWzAAC8m-6" value="clickToMore()" style="html=1;verticalAlign=bottom;startArrow=oval;endArrow=block;startSize=8;curved=0;rounded=0;entryX=0;entryY=0;entryDx=0;entryDy=5;" edge="1" target="5b2YeRVBqgFCgWzAAC8m-5" parent="1">
          <mxGeometry relative="1" as="geometry">
            <mxPoint x="179.5" y="234" as="sourcePoint" />
          </mxGeometry>
        </mxCell>
        <mxCell id="5b2YeRVBqgFCgWzAAC8m-8" value="ref" style="shape=umlFrame;whiteSpace=wrap;html=1;pointerEvents=0;width=40;height=15;" vertex="1" parent="1">
          <mxGeometry x="160" y="140" width="320" height="30" as="geometry" />
        </mxCell>
        <mxCell id="5b2YeRVBqgFCgWzAAC8m-9" value="To connect" style="text;html=1;align=center;verticalAlign=middle;resizable=0;points=[];autosize=1;strokeColor=none;fillColor=none;" vertex="1" parent="1">
          <mxGeometry x="270" y="140" width="80" height="30" as="geometry" />
        </mxCell>
        <mxCell id="5b2YeRVBqgFCgWzAAC8m-10" value="ref" style="shape=umlFrame;whiteSpace=wrap;html=1;pointerEvents=0;width=40;height=15;" vertex="1" parent="1">
          <mxGeometry x="160" y="180" width="320" height="30" as="geometry" />
        </mxCell>
        <mxCell id="5b2YeRVBqgFCgWzAAC8m-11" value="Consult a course" style="text;html=1;align=center;verticalAlign=middle;resizable=0;points=[];autosize=1;strokeColor=none;fillColor=none;" vertex="1" parent="1">
          <mxGeometry x="255" y="180" width="110" height="30" as="geometry" />
        </mxCell>
        <mxCell id="5b2YeRVBqgFCgWzAAC8m-12" value="displaysSubMenu()" style="html=1;verticalAlign=bottom;endArrow=open;dashed=1;endSize=8;curved=0;rounded=0;exitX=0;exitY=1;exitDx=0;exitDy=-5;exitPerimeter=0;" edge="1" parent="1" source="5b2YeRVBqgFCgWzAAC8m-5" target="5b2YeRVBqgFCgWzAAC8m-1">
          <mxGeometry relative="1" as="geometry">
            <mxPoint x="440" y="260" as="sourcePoint" />
            <mxPoint x="179.5" y="259" as="targetPoint" />
          </mxGeometry>
        </mxCell>
        <mxCell id="5b2YeRVBqgFCgWzAAC8m-13" value="" style="html=1;points=[[0,0,0,0,5],[0,1,0,0,-5],[1,0,0,0,5],[1,1,0,0,-5]];perimeter=orthogonalPerimeter;outlineConnect=0;targetShapes=umlLifeline;portConstraint=eastwest;newEdgeStyle={&quot;curved&quot;:0,&quot;rounded&quot;:0};" vertex="1" parent="1">
          <mxGeometry x="445.5" y="280" width="10" height="31" as="geometry" />
        </mxCell>
        <mxCell id="5b2YeRVBqgFCgWzAAC8m-14" value="clickToBBBParticipationReport()" style="html=1;verticalAlign=bottom;startArrow=oval;endArrow=block;startSize=8;curved=0;rounded=0;entryX=0;entryY=0;entryDx=0;entryDy=5;" edge="1" parent="1" target="5b2YeRVBqgFCgWzAAC8m-13">
          <mxGeometry relative="1" as="geometry">
            <mxPoint x="180" y="285" as="sourcePoint" />
          </mxGeometry>
        </mxCell>
        <mxCell id="5b2YeRVBqgFCgWzAAC8m-15" value="showsParticipationReportPage()" style="html=1;verticalAlign=bottom;endArrow=open;dashed=1;endSize=8;curved=0;rounded=0;exitX=0;exitY=1;exitDx=0;exitDy=-5;exitPerimeter=0;" edge="1" parent="1" source="5b2YeRVBqgFCgWzAAC8m-13">
          <mxGeometry relative="1" as="geometry">
            <mxPoint x="440.5" y="311" as="sourcePoint" />
            <mxPoint x="180.5" y="306" as="targetPoint" />
          </mxGeometry>
        </mxCell>
        <mxCell id="5b2YeRVBqgFCgWzAAC8m-16" value="sd Consult Participation Report" style="shape=umlFrame;whiteSpace=wrap;html=1;pointerEvents=0;width=180;height=30;" vertex="1" parent="1">
          <mxGeometry x="70" y="40" width="510" height="350" as="geometry" />
        </mxCell>
      </root>
    </mxGraphModel>
  </diagram>
</mxfile>
